<?xml version="1.0" encoding="utf-8"?>
<!-- Generator: Adobe Illustrator 23.0.6, SVG Export Plug-In . SVG Version: 6.00 Build 0)  -->
<svg version="1.1" id="Ebene_1" xmlns="http://www.w3.org/2000/svg" xmlns:xlink="http://www.w3.org/1999/xlink" x="0px" y="0px"
	 viewBox="0 0 346.9 180.6" style="enable-background:new 0 0 346.9 180.6;" xml:space="preserve">
<style type="text/css">
	.st0{fill:#FFFFFF;}
	.st1{fill:#009EE0;enable-background:new    ;}
</style>
<path class="st0" d="M31.2,45.2V101c4.5,6.7,11.3,11.7,19.4,13.6v13.4c-2.3,0.5-4.7,0.8-7.1,0.8c-4.4,0-8.5-0.9-12.3-2.4
	c-0.7-0.3-1.3-0.6-2-0.9c-9.2-4.5-15.9-13.3-17.7-23.7V45.2H1V28.4h10.5V11.5h19.7v16.9h20.2v16.8H31.2z"/>
<path class="st0" d="M135.9,119.8h-31.6c-3.5-1.8-5.6-4.5-5.6-7.5c0-4.3,4.6-8,11-9.4c1.8-0.4,3.7-0.6,5.7-0.6
	c1.6,0,3.2,0.1,4.6,0.4c0.2,0,0.5,0,0.7-0.1c16.5-1.5,29.4-15.5,29.4-32.6c0-2-0.2-4-0.5-5.9h0.5V27.7h-17.3v9.9
	c-6.4-5.4-14.7-8.7-23.8-8.7c-20.4,0-37,16.6-37,37c0,12.6,6.3,23.7,15.9,30.4c-3.8,3.8-6.1,9-6.1,14.8c0,4,1.1,7.8,3.1,11
	c-8.2,4.3-14,14-14,25.3c0,14.6,9.5,26.5,21.6,27.5c0.6,0.1,1.2,0.1,1.7,0.1h41.5c12.9,0,23.4-12.4,23.4-27.6
	S148.8,119.8,135.9,119.8z M99.1,121.1c-0.6,0-1.2,0-1.7,0.1v-0.1H99.1z M111.4,44.9c11.6,0,20.9,9.4,20.9,20.9s-9.4,20.9-20.9,20.9
	s-20.9-9.4-20.9-20.9S99.8,44.9,111.4,44.9z M138.4,155.9c-2,2-4.7,3.2-7.6,3.2h-29.8c-6,0-10.8-4.8-10.8-10.8c0-3,1.2-5.7,3.2-7.6
	c2-2,4.7-3.2,7.6-3.2h29.8c6,0,10.8,4.8,10.8,10.8C141.6,151.2,140.4,153.9,138.4,155.9z"/>
<path class="st0" d="M303,55.4v73h-16.8V60c-0.2-0.9-0.5-1.7-0.9-2.5c-0.7-1.4-1.5-2.7-2.6-3.9c-3.5-3.8-9.1-6.3-15.3-6.3
	c-3,0-5.8,0.6-8.3,1.6c-2.4,1-4.5,2.3-6.1,3.9c-1.4,1.3-2.5,2.7-3.3,4.3c-0.2,0.3-0.4,0.7-0.5,1.1v69h-18.5V61.2h-0.2
	c-0.1-0.7-0.3-1.4-0.5-2.1c-0.6-2.1-1.7-4-3.2-5.6c-3.4-3.8-8.7-6.3-14.6-6.3c-4.2,0-8,1.2-11.1,3.2v0c-2.2,1.4-3.9,3.2-5.2,5.3
	c-1.3,2.2-2.1,4.8-2.1,7.4c0,0.4,0,0.8,0,1.2h0v64h-18.1V30.2h18.1v8.7c1.3-1.7,3.1-3.2,5.3-4.5c4.7-2.4,10.2-3.8,16.1-3.8
	c11,0,20.8,4.9,26.5,12.4c5-6.7,13.5-11.5,23.5-12.6c0.9-0.1,1.7-0.1,2.6-0.1c6.2,0,11.8,1.5,16.1,4c0.8,0.3,1.6,0.7,2.3,1.1
	c1.1,0.5,2.1,1.2,3.2,1.8c6,3.8,10.4,9,12.5,14v0C302.4,52.6,302.8,54,303,55.4z"/>
<polygon class="st1" points="346.9,0.2 346.9,46.7 346.1,46.7 300,0.6 300,0.2 "/>
</svg>
