<?xml version="1.0" encoding="utf-8"?>
<!-- Generator: Adobe Illustrator 23.0.6, SVG Export Plug-In . SVG Version: 6.00 Build 0)  -->
<svg version="1.1" id="Ebene_1" xmlns="http://www.w3.org/2000/svg" xmlns:xlink="http://www.w3.org/1999/xlink" x="0px" y="0px"
	 viewBox="0 0 46.9 48.3" style="enable-background:new 0 0 46.9 48.3;" xml:space="preserve">
<style type="text/css">
	.st0{fill:#FFFFFF;}
	.st1{fill:#262431;}
</style>
<circle class="st0" cx="23.5" cy="24.3" r="23"/>
<g>
	<g>
		<g>
			<path class="st1" d="M30.1,28.4c-0.1,0-0.2,0-0.2-0.1l-3.9-3.7c-0.1-0.1-0.1-0.3,0-0.5c0.1-0.1,0.3-0.1,0.5,0l3.9,3.7
				c0.1,0.1,0.1,0.3,0,0.5C30.3,28.4,30.2,28.4,30.1,28.4z"/>
			<path class="st1" d="M17,28.4c-0.1,0-0.2,0-0.2-0.1c-0.1-0.1-0.1-0.4,0-0.5l3.9-3.7c0.1-0.1,0.4-0.1,0.5,0c0.1,0.1,0.1,0.4,0,0.5
				l-3.9,3.7C17.1,28.4,17,28.4,17,28.4z"/>
		</g>
		<path class="st1" d="M32.4,31.9H14.6c-0.9,0-1.7-0.8-1.7-1.7V18.5c0-0.9,0.8-1.7,1.7-1.7h17.8c0.9,0,1.7,0.8,1.7,1.7v11.7
			C34.1,31.1,33.4,31.9,32.4,31.9z M14.6,17.5c-0.6,0-1,0.5-1,1v11.7c0,0.6,0.5,1,1,1h17.8c0.6,0,1-0.5,1-1V18.5c0-0.6-0.5-1-1-1
			H14.6z"/>
		<path class="st1" d="M23.5,26c-0.5,0-0.9-0.2-1.3-0.5l-8.8-7.7c-0.1-0.1-0.2-0.3,0-0.5c0.1-0.1,0.3-0.2,0.5,0l8.8,7.7
			c0.4,0.4,1.2,0.4,1.6,0l8.8-7.6c0.1-0.1,0.4-0.1,0.5,0c0.1,0.1,0.1,0.4,0,0.5l-8.8,7.6C24.4,25.9,24,26,23.5,26z"/>
	</g>
</g>
</svg>
